<svg width="32" height="31" viewBox="0 0 32 31" fill="none" xmlns="http://www.w3.org/2000/svg">
<path fill-rule="evenodd" clip-rule="evenodd" d="M16 0.5C7.52799 0.5 0.666992 7.362 0.666992 15.833C0.666992 22.618 5.05599 28.349 11.151 30.381C11.918 30.515 12.205 30.055 12.205 29.652C12.205 29.288 12.185 28.081 12.185 26.797C8.33299 27.506 7.33699 25.857 7.02999 24.995C6.85699 24.555 6.10999 23.193 5.45799 22.829C4.92199 22.542 4.15499 21.832 5.43899 21.813C6.64699 21.794 7.50899 22.925 7.79699 23.385C9.17699 25.705 11.381 25.052 12.262 24.65C12.397 23.653 12.799 22.983 13.24 22.6C9.82799 22.216 6.26299 20.893 6.26299 15.028C6.26299 13.361 6.85699 11.981 7.83499 10.908C7.68199 10.524 7.14499 8.953 7.98799 6.844C7.98799 6.844 9.27199 6.442 12.205 8.416C13.4531 8.06966 14.7427 7.89539 16.038 7.898C17.342 7.898 18.645 8.071 19.872 8.416C22.804 6.422 24.088 6.844 24.088 6.844C24.932 8.953 24.395 10.524 24.242 10.908C25.219 11.981 25.813 13.342 25.813 15.028C25.813 20.913 22.229 22.216 18.818 22.599C19.373 23.079 19.852 23.999 19.852 25.436C19.852 27.486 19.833 29.135 19.833 29.652C19.833 30.055 20.121 30.534 20.888 30.381C26.944 28.349 31.333 22.599 31.333 15.833C31.333 7.362 24.472 0.5 16 0.5Z" fill="white"/>
</svg>
