<svg width="32" height="33" viewBox="0 0 32 33" fill="none" xmlns="http://www.w3.org/2000/svg">
<g clip-path="url(#clip0_2_210)">
<path d="M0 3.5C0 2.70435 0.31607 1.94129 0.87868 1.37868C1.44129 0.81607 2.20435 0.5 3 0.5L29 0.5C29.7956 0.5 30.5587 0.81607 31.1213 1.37868C31.6839 1.94129 32 2.70435 32 3.5V29.5C32 30.2956 31.6839 31.0587 31.1213 31.6213C30.5587 32.1839 29.7956 32.5 29 32.5H3C2.20435 32.5 1.44129 32.1839 0.87868 31.6213C0.31607 31.0587 0 30.2956 0 29.5L0 3.5Z" fill="white"/>
<path d="M6.33301 3C5.96091 3 5.59245 3.07329 5.24868 3.21569C4.9049 3.35808 4.59254 3.5668 4.32942 3.82991C4.06631 4.09303 3.8576 4.40539 3.7152 4.74917C3.5728 5.09294 3.49951 5.4614 3.49951 5.8335C3.49951 6.2056 3.5728 6.57406 3.7152 6.91783C3.8576 7.26161 4.06631 7.57397 4.32942 7.83709C4.59254 8.1002 4.9049 8.30892 5.24868 8.45131C5.59245 8.59371 5.96091 8.667 6.33301 8.667C7.0845 8.667 7.80521 8.36847 8.3366 7.83709C8.86798 7.3057 9.16651 6.58499 9.16651 5.8335C9.16651 5.08201 8.86798 4.3613 8.3366 3.82991C7.80521 3.29853 7.0845 3 6.33301 3ZM3.66701 11C3.62272 11 3.58024 11.0176 3.54892 11.0489C3.51761 11.0802 3.50001 11.1227 3.50001 11.167V28.5C3.50001 28.592 3.57501 28.667 3.66701 28.667H9.00001C9.0443 28.667 9.08678 28.6494 9.1181 28.6181C9.14942 28.5868 9.16701 28.5443 9.16701 28.5V11.167C9.16701 11.1227 9.14942 11.0802 9.1181 11.0489C9.08678 11.0176 9.0443 11 9.00001 11H3.66701ZM12.333 11C12.2889 11.0003 12.2467 11.018 12.2156 11.0493C12.1845 11.0806 12.167 11.1229 12.167 11.167V28.5C12.167 28.592 12.241 28.667 12.333 28.667H17.667C17.7111 28.6667 17.7533 28.649 17.7845 28.6177C17.8156 28.5864 17.833 28.5441 17.833 28.5V19.167C17.833 18.8387 17.8977 18.5136 18.0233 18.2103C18.149 17.907 18.3331 17.6314 18.5652 17.3992C18.7974 17.1671 19.073 16.9829 19.3763 16.8573C19.6796 16.7317 20.0047 16.667 20.333 16.667C20.6613 16.667 20.9864 16.7317 21.2897 16.8573C21.593 16.9829 21.8686 17.1671 22.1008 17.3992C22.3329 17.6314 22.5171 17.907 22.6427 18.2103C22.7683 18.5136 22.833 18.8387 22.833 19.167V28.5C22.833 28.592 22.908 28.667 23 28.667H28.333C28.3773 28.667 28.4198 28.6494 28.4511 28.6181C28.4824 28.5868 28.5 28.5443 28.5 28.5V17.007C28.5 13.771 25.686 11.24 22.466 11.533C21.4704 11.6236 20.4952 11.8699 19.576 12.263L17.833 13.009V11.167C17.833 11.1229 17.8156 11.0806 17.7845 11.0493C17.7533 11.018 17.7111 11.0003 17.667 11H12.333Z" fill="black"/>
</g>
<defs>
<clipPath id="clip0_2_210">
<rect width="32" height="32" fill="white" transform="translate(0 0.5)"/>
</clipPath>
</defs>
</svg>
