<svg width="32" height="33" viewBox="0 0 32 33" fill="none" xmlns="http://www.w3.org/2000/svg">
<g clip-path="url(#clip0_2_215)">
<path d="M25.6 6.36666L3.86667 14.7667C2.40001 15.3 2.40001 16.2333 3.60001 16.5L9.06667 18.2333L11.2 24.6333C11.4667 25.3 11.3333 25.5667 12 25.5667C12.5333 25.5667 12.8 25.3 13.0667 25.0333L15.7333 22.3667L21.3333 26.5C22.4 27.0333 23.0667 26.7667 23.3333 25.5667L27.0667 8.09999C27.4667 6.63333 26.5333 5.83333 25.6 6.36666ZM22.8 10.3667L12.4 19.8333L12 24.2333L9.86667 17.8333L22.1333 10.1C22.6667 9.69999 23.2 9.96666 22.8 10.3667Z" fill="white"/>
</g>
<defs>
<clipPath id="clip0_2_215">
<rect width="32" height="32" fill="white" transform="translate(0 0.5)"/>
</clipPath>
</defs>
</svg>
